<?xml version="1.0" encoding="utf-8"?>
<!-- Generator: Adobe Illustrator 23.0.0, SVG Export Plug-In . SVG Version: 6.00 Build 0)  -->
<svg version="1.1" id="Слой_1" xmlns="http://www.w3.org/2000/svg" xmlns:xlink="http://www.w3.org/1999/xlink" x="0px" y="0px"
	 viewBox="0 0 79.53 63.53" style="enable-background:new 0 0 79.53 63.53;" xml:space="preserve">
<style type="text/css">
	.st0{fill:none;stroke:#135FB6;stroke-width:3.3992;stroke-linecap:round;stroke-linejoin:round;stroke-miterlimit:10;}
</style>
<path class="st0" d="M77.38,32.49c-0.19,0.81-0.82,1.41-1.57,1.59c-6.03,1.47-12.05,1.9-18.07,2.01c-1,0.01-1.99,0.02-2.99,0.02
	l-23.99,25.7l-7.19-0.11l12.9-25.79c-4.96-0.09-9.93-0.26-14.89-0.48c-0.74-0.03-1.49-0.06-2.23-0.1l-9.45,9.57l-7.3-1.28l5.79-8.95
	c-1.63-0.13-3.25-0.26-4.88-0.41c-1.16-0.1-2-1.13-1.9-2.27c0.09-1.02,0.9-1.8,1.89-1.9c1.57-0.15,3.16-0.29,4.73-0.42l-5.83-9.04
	l7.3-1.27l9.49,9.61c0.79-0.05,1.59-0.08,2.38-0.13c4.92-0.25,9.84-0.43,14.78-0.55L23.36,2.33l7.19-0.11L54.61,28
	c1.03-0.01,2.06-0.02,3.1-0.01c6.03,0.09,12.06,0.49,18.08,1.92C76.94,30.19,77.66,31.35,77.38,32.49z"/>
</svg>
