<?xml version="1.0" encoding="utf-8"?>
<!-- Generator: Adobe Illustrator 23.0.0, SVG Export Plug-In . SVG Version: 6.00 Build 0)  -->
<svg version="1.1" xmlns="http://www.w3.org/2000/svg" xmlns:xlink="http://www.w3.org/1999/xlink" x="0px" y="0px"
	 viewBox="0 0 841.89 595.28" style="enable-background:new 0 0 841.89 595.28;" xml:space="preserve">
<style type="text/css">
	.st0{fill:none;stroke:#000000;stroke-width:3.3992;stroke-linecap:round;stroke-linejoin:round;stroke-miterlimit:10;}
	.st1{fill:none;stroke:#000000;stroke-width:4.5902;stroke-linecap:round;stroke-linejoin:round;stroke-miterlimit:10;}
	.st2{fill:none;stroke:#000000;stroke-width:3.3992;stroke-linejoin:round;stroke-miterlimit:10;}
</style>
<g id="Слой_1">
	<path class="st0" d="M327.71,81.62c-0.92,0.69-2.18,0.69-3.1,0c-6.75-5.01-29.62-23.2-23.29-35.12
		c7.46-14.02,18.87-6.65,23.17-3.11c0.97,0.8,2.37,0.8,3.34,0c4.3-3.54,15.72-10.91,23.17,3.11
		C357.34,58.42,334.46,76.61,327.71,81.62z"/>
	<g>
		<path class="st0" d="M381.67,65.66"/>
		<g>
			<path class="st0" d="M394.67,77.83c0,0,27.33-26.42,30.17-29.75c2.83-3.33-0.5-5.67-0.5-5.67s-4.75-5.08-6.75-7.25
				c-2-2.17-4.25,0.17-4.25,0.17l-32.25,32.08L380,79.5L394.67,77.83z"/>
			<path class="st0" d="M408.25,40.66c0.83,0.75,11.83,11.67,11.83,11.67"/>
			<line class="st0" x1="394.17" y1="65.83" x2="406.75" y2="53.41"/>
			<line class="st0" x1="401.83" y1="80.08" x2="432.58" y2="80"/>
		</g>
	</g>
	<g>
		<line class="st0" x1="557.44" y1="69.72" x2="625.56" y2="69.83"/>
		<path class="st0" d="M592.89,69.28c0,0,12.44-18.78,30.56-14.78l-3.33,15"/>
		<path class="st0" d="M612.67,68.72c0,0-14.67-29.44-34.44-29.78l5.22,29.33"/>
		<path class="st0" d="M578.56,48.5c-12.78-4.56-10.67-1.78-10.67-1.78l3.22,20.56l0.22,0.89"/>
		<path class="st0" d="M567.89,56.16c-9.33-3.33-10.11-2.67-10.11-2.67l4.1,16.15"/>
		<path class="st0" d="M624,82.39c0,0-10.75,11.31-19.89-1.23c-0.38-0.52-1.21-0.39-1.6,0.12c-2.54,3.28-11.41,12.78-20.62-0.52
			c-0.27-0.4-0.97-0.53-1.17-0.09c-1.88,4.27-16.63,13.52-21.82,0.27"/>
	</g>
	<g>
		<g>
			<ellipse cx="676.72" cy="69.69" rx="3.72" ry="3.62"/>
			<line class="st1" x1="676.88" y1="44.13" x2="676.88" y2="61.68"/>
		</g>
		<ellipse class="st0" cx="676.72" cy="58.72" rx="25.5" ry="24.89"/>
	</g>
	<g>
		<ellipse class="st0" cx="483.31" cy="44.65" rx="9.17" ry="8.46"/>
		<ellipse class="st0" cx="510.06" cy="44.65" rx="9.17" ry="8.46"/>
		<ellipse class="st0" cx="496.4" cy="64.01" rx="9.68" ry="9.49"/>
		<path class="st0" d="M490.31,77.03c-0.69,1.62-2.48,2.48-4.71,3.04c-1.15,0.29-2.01,1.27-2.18,2.45c-0.14,0.99-0.27,2.24-0.27,3.6
			c9.4,3.29,18.85,3.26,28.33,0c0-1.36-0.13-2.61-0.27-3.6c-0.17-1.18-1.03-2.16-2.18-2.45c-2.23-0.56-4.02-1.42-4.71-3.04"/>
		<path class="st0" d="M482,65.89h-11.31c0-1.36,0.13-2.61,0.27-3.6c0.17-1.18,1.03-2.16,2.18-2.45c2.23-0.56,4.02-1.42,4.71-3.04"
			/>
		<path class="st0" d="M516.25,56.8c0.69,1.62,2.48,2.48,4.71,3.04c1.15,0.29,2.01,1.27,2.18,2.45c0.14,0.99,0.27,2.24,0.27,3.6
			h-12.75"/>
	</g>
	<g>
		<path class="st0" d="M238.01,57.24v-6.97c0-8.95,7.26-16.21,16.21-16.21c4.48,0,8.53,1.81,11.46,4.75
			c2.94,2.93,4.75,6.98,4.75,11.46"/>
		<path class="st0" d="M270.18,87.32h-31.92c-2.78,0-5.04-2.26-5.04-5.04v-20c0-2.78,2.26-5.04,5.04-5.04h31.92
			c2.78,0,5.04,2.26,5.04,5.04v20C275.22,85.06,272.96,87.32,270.18,87.32z"/>
		<circle cx="254.22" cy="70.61" r="3.67"/>
		<rect x="252.93" y="70.98" width="2.58" height="8.08"/>
	</g>
</g>
<g id="Слой_2">
	<g>
		<path class="st2" d="M95.24,53.35c0,0-15.39-19.17-37.77-18.32c-8.69,0.28-14.07,5.67-15.58,17.94"/>
		<line class="st2" x1="58.22" y1="53.64" x2="58.03" y2="34.94"/>
		<line class="st0" x1="87.42" y1="75.64" x2="62.34" y2="75.64"/>
		<path class="st0" d="M46.74,75.64h-8.63V57.7c0-2.66,2.16-4.82,4.82-4.82h50.18c10.72,0,19.41,8.69,19.41,19.41v3.35h-9.65"/>
		<circle class="st0" cx="54.54" cy="74.88" r="7.84"/>
		<circle class="st0" cx="95.14" cy="74.32" r="7.84"/>
	</g>
	<path class="st0" d="M205.29,55.85c-0.19,0.81-0.82,1.41-1.57,1.59c-6.03,1.47-12.05,1.9-18.07,2.01c-1,0.01-1.99,0.02-2.99,0.02
		l-23.99,25.7l-7.19-0.11l12.9-25.79c-4.96-0.09-9.93-0.26-14.89-0.48c-0.74-0.03-1.49-0.06-2.23-0.1l-9.45,9.57l-7.3-1.28
		l5.79-8.95c-1.63-0.13-3.25-0.26-4.88-0.41c-1.16-0.1-2-1.13-1.9-2.27c0.09-1.02,0.9-1.8,1.89-1.9c1.57-0.15,3.16-0.29,4.73-0.42
		l-5.83-9.04l7.3-1.27l9.49,9.61c0.79-0.05,1.59-0.08,2.38-0.13c4.92-0.25,9.84-0.43,14.78-0.55l-12.97-25.95l7.19-0.11l24.06,25.78
		c1.03-0.01,2.06-0.02,3.1-0.01c6.03,0.09,12.06,0.49,18.08,1.92C204.85,53.54,205.57,54.7,205.29,55.85z"/>
</g>
</svg>
