<?xml version="1.0" encoding="utf-8"?>
<!-- Generator: Adobe Illustrator 23.0.0, SVG Export Plug-In . SVG Version: 6.00 Build 0)  -->
<svg version="1.1" id="Слой_1" xmlns="http://www.w3.org/2000/svg" xmlns:xlink="http://www.w3.org/1999/xlink" x="0px" y="0px"
	 viewBox="0 0 56.69 56.69" style="enable-background:new 0 0 56.69 56.69;" xml:space="preserve">
<style type="text/css">
	.st0{fill:none;stroke:#135FB6;stroke-width:3.3992;stroke-linecap:round;stroke-linejoin:round;stroke-miterlimit:10;}
	.st1{fill:#135FB6;}
</style>
<g>
	<path class="st0" d="M12.14,24.9v-6.97c0-8.95,7.26-16.21,16.21-16.21c4.48,0,8.53,1.81,11.46,4.75c2.94,2.93,4.75,6.98,4.75,11.46
		"/>
	<path class="st0" d="M44.3,54.97H12.39c-2.78,0-5.04-2.26-5.04-5.04v-20c0-2.78,2.26-5.04,5.04-5.04H44.3
		c2.78,0,5.04,2.26,5.04,5.04v20C49.35,52.72,47.09,54.97,44.3,54.97z"/>
	<circle class="st1" cx="28.35" cy="38.26" r="3.67"/>
	<rect x="27.05" y="38.64" class="st1" width="2.58" height="8.08"/>
</g>
</svg>
