<?xml version="1.0" encoding="utf-8"?>
<!-- Generator: Adobe Illustrator 23.0.0, SVG Export Plug-In . SVG Version: 6.00 Build 0)  -->
<svg version="1.1" id="Слой_1" xmlns="http://www.w3.org/2000/svg" xmlns:xlink="http://www.w3.org/1999/xlink" x="0px" y="0px"
	 viewBox="0 0 56.69 56.69" style="enable-background:new 0 0 56.69 56.69;" xml:space="preserve">
<style type="text/css">
	.st0{fill:none;stroke:#135FB6;stroke-width:3.3992;stroke-linecap:round;stroke-linejoin:round;stroke-miterlimit:10;}
</style>
<g>
	<line class="st0" x1="-5.71" y1="34.69" x2="62.4" y2="34.8"/>
	<path class="st0" d="M29.74,34.25c0,0,12.44-18.78,30.56-14.78l-3.33,15"/>
	<path class="st0" d="M49.51,33.69c0,0-14.67-29.44-34.44-29.78l5.22,29.33"/>
	<path class="st0" d="M15.4,13.47C2.62,8.91,4.74,11.69,4.74,11.69l3.22,20.56l0.22,0.89"/>
	<path class="st0" d="M4.74,21.14C-4.6,17.8-5.38,18.47-5.38,18.47l4.1,16.15"/>
	<path class="st0" d="M60.85,47.36c0,0-10.75,11.31-19.89-1.23c-0.38-0.52-1.21-0.39-1.6,0.12c-2.54,3.28-11.41,12.78-20.62-0.52
		c-0.27-0.4-0.97-0.53-1.17-0.09c-1.88,4.27-16.63,13.52-21.82,0.27"/>
</g>
</svg>
