<?xml version="1.0" encoding="utf-8"?>
<!-- Generator: Adobe Illustrator 23.0.0, SVG Export Plug-In . SVG Version: 6.00 Build 0)  -->
<svg version="1.1" id="Слой_1" xmlns="http://www.w3.org/2000/svg" xmlns:xlink="http://www.w3.org/1999/xlink" x="0px" y="0px"
	 viewBox="0 0 56.69 56.69" style="enable-background:new 0 0 56.69 56.69;" xml:space="preserve">
<style type="text/css">
	.st0{fill:none;stroke:#135FB6;stroke-width:3.3992;stroke-linecap:round;stroke-linejoin:round;stroke-miterlimit:10;}
</style>
<g>
	<ellipse class="st0" cx="14.6" cy="10.62" rx="9.17" ry="8.46"/>
	<ellipse class="st0" cx="41.35" cy="10.62" rx="9.17" ry="8.46"/>
	<ellipse class="st0" cx="27.69" cy="29.98" rx="9.68" ry="9.49"/>
	<path class="st0" d="M21.6,42.99c-0.69,1.62-2.48,2.48-4.71,3.04c-1.15,0.29-2.01,1.27-2.18,2.45c-0.14,0.99-0.27,2.24-0.27,3.6
		c9.4,3.29,18.85,3.26,28.33,0c0-1.36-0.13-2.61-0.27-3.6c-0.17-1.18-1.03-2.16-2.18-2.45c-2.23-0.56-4.02-1.42-4.71-3.04"/>
	<path class="st0" d="M13.29,31.85H1.99c0-1.36,0.13-2.61,0.27-3.6c0.17-1.18,1.03-2.16,2.18-2.45c2.23-0.56,4.02-1.42,4.71-3.04"/>
	<path class="st0" d="M47.54,22.77c0.69,1.62,2.48,2.48,4.71,3.04c1.15,0.29,2.01,1.27,2.18,2.45c0.14,0.99,0.27,2.24,0.27,3.6
		H41.96"/>
</g>
</svg>
