<?xml version="1.0" encoding="utf-8"?>
<!-- Generator: Adobe Illustrator 23.0.0, SVG Export Plug-In . SVG Version: 6.00 Build 0)  -->
<svg version="1.1" id="Слой_1" xmlns="http://www.w3.org/2000/svg" xmlns:xlink="http://www.w3.org/1999/xlink" x="0px" y="0px"
	 viewBox="0 0 56.69 56.69" style="enable-background:new 0 0 56.69 56.69;" xml:space="preserve">
<style type="text/css">
	.st0{fill:#135FB6;}
</style>
<g>
	<g>
		<g>
			<ellipse class="st0" cx="28.35" cy="40.04" rx="3.88" ry="3.86"/>
		</g>
		<g>
			<path class="st0" d="M28.51,33.95c-1.32,0-2.39-1.1-2.39-2.45V12.8c0-1.35,1.07-2.45,2.39-2.45c1.32,0,2.39,1.1,2.39,2.45V31.5
				C30.9,32.85,29.83,33.95,28.51,33.95z"/>
		</g>
	</g>
	<g>
		<path class="st0" d="M28.35,56.69C12.72,56.69,0,43.98,0,28.35S12.72,0,28.35,0c15.63,0,28.35,12.72,28.35,28.35
			S43.98,56.69,28.35,56.69z M28.35,3.62c-13.68,0-24.8,11.09-24.8,24.72c0,13.63,11.13,24.72,24.8,24.72
			c13.68,0,24.8-11.09,24.8-24.72C53.15,14.71,42.02,3.62,28.35,3.62z"/>
	</g>
</g>
</svg>
